<?xml version="1.0" encoding="UTF-8" standalone="no"?>
<!-- Created with Inkscape (http://www.inkscape.org/) -->
<svg
   xmlns:dc="http://purl.org/dc/elements/1.1/"
   xmlns:cc="http://creativecommons.org/ns#"
   xmlns:rdf="http://www.w3.org/1999/02/22-rdf-syntax-ns#"
   xmlns:svg="http://www.w3.org/2000/svg"
   xmlns="http://www.w3.org/2000/svg"
   xmlns:sodipodi="http://sodipodi.sourceforge.net/DTD/sodipodi-0.dtd"
   xmlns:inkscape="http://www.inkscape.org/namespaces/inkscape"
   version="1.0"
   width="860"
   height="640"
   viewBox="0 0 414.33203 414.3335"
   id="svg2"
   xml:space="preserve"
   style="overflow:visible"
   sodipodi:version="0.32"
   inkscape:version="0.46"
   sodipodi:docname="Flag of various Republican Parties of India.svg"
   inkscape:output_extension="org.inkscape.output.svg.inkscape"><metadata
     id="metadata31"><rdf:RDF><cc:Work
         rdf:about=""><dc:format>image/svg+xml</dc:format><dc:type
           rdf:resource="http://purl.org/dc/dcmitype/StillImage" /></cc:Work></rdf:RDF></metadata><sodipodi:namedview
     inkscape:window-height="703"
     inkscape:window-width="1280"
     inkscape:pageshadow="2"
     inkscape:pageopacity="0.0"
     guidetolerance="10.0"
     gridtolerance="10.0"
     objecttolerance="10.0"
     borderopacity="1.0"
     bordercolor="#666666"
     pagecolor="#ffffff"
     id="base"
     showgrid="false"
     inkscape:zoom="0.765625"
     inkscape:cx="570.96021"
     inkscape:cy="320"
     inkscape:window-x="-4"
     inkscape:window-y="-4"
     inkscape:current-layer="svg2" /><defs
     id="defs10"><inkscape:perspective
       sodipodi:type="inkscape:persp3d"
       inkscape:vp_x="0 : 207.16675 : 1"
       inkscape:vp_y="0 : 1000 : 0"
       inkscape:vp_z="414.33203 : 207.16675 : 1"
       inkscape:persp3d-origin="207.16602 : 138.11117 : 1"
       id="perspective33" /></defs><rect
     style="fill:#000066;fill-opacity:1;stroke:#ffffff;stroke-width:5.02682877;stroke-miterlimit:4;stroke-dasharray:none;stroke-opacity:1"
     id="rect3176"
     width="551.73376"
     height="409.30667"
     x="-68.700867"
     y="2.5134144" /><g
     id="g3178"
     transform="matrix(0.625,0,0,0.625,77.687256,77.687531)"><path
       style="fill:#ffffff;fill-opacity:1"
       id="path2128"
       d="M 414.33203,207.1665 C 414.33203,321.58252 321.58203,414.3335 207.16602,414.3335 C 92.75,414.3335 0,321.58252 0,207.1665 C 0,92.75293 92.75,0 207.16602,0 C 321.58203,0 414.33203,92.75293 414.33203,207.1665 L 414.33203,207.1665 z" /><path
       style="fill:#000066;fill-opacity:1"
       id="path2436"
       d="M 207.16602,207.1665 L 200.85107,279.88916 L 206.37061,389.65576 C 202.52148,389.64111 198.67529,389.50537 194.8335,389.24072 C 195.66406,382.92334 191.21875,377.12842 184.89844,376.29834 C 178.58105,375.46729 172.78711,379.9126 171.95313,386.22998 C 168.17676,385.48682 164.4248,384.62646 160.70166,383.646 L 194.44287,279.04834 L 207.16602,207.1665 z" /><path
       style="fill:#000066;fill-opacity:1"
       id="path2434"
       d="M 207.16602,207.1665 L 182.24414,275.77881 L 159.16406,383.23584 C 155.4502,382.22217 151.77002,381.08838 148.12842,379.84814 C 150.56787,373.95752 147.77344,367.2085 141.88428,364.76807 C 135.99609,362.32959 129.24707,365.13037 126.80762,371.01123 C 123.35352,369.31787 119.95166,367.51514 116.60938,365.60498 L 176.27197,273.3042 L 207.16602,207.1665 z" /><path
       style="fill:#000066;fill-opacity:1"
       id="path2432"
       d="M 207.16602,207.1665 L 165.33643,266.98486 L 115.23096,364.80713 C 111.90723,362.87158 108.64355,360.82666 105.44727,358.6792 C 109.32617,353.62939 108.37402,346.38428 103.31836,342.50342 C 98.263672,338.62646 91.018066,339.58057 87.139648,344.63135 C 84.239746,342.10498 81.42334,339.48291 78.6875,336.77002 L 160.2085,263.05713 L 207.16602,207.1665 z" /><path
       style="fill:#000066;fill-opacity:1"
       id="path2430"
       d="M 207.16602,207.1665 L 151.27686,254.12451 L 77.563477,335.64209 C 74.852051,332.91162 72.230957,330.09033 69.697266,327.19189 C 74.755371,323.30811 75.70752,316.06982 71.828613,311.01318 C 67.949219,305.9585 60.706543,305.00342 55.651856,308.8833 C 53.504395,305.68896 51.462402,302.42627 49.522461,299.10205 L 147.34473,248.99854 L 207.16602,207.1665 z" /><path
       style="fill:#000066;fill-opacity:1"
       id="path2428"
       d="M 207.16602,207.1665 L 141.0293,238.05713 L 48.727051,297.72021 C 46.817871,294.38135 45.013183,290.98193 43.318848,287.52393 C 49.20459,285.08545 52.001953,278.3374 49.563476,272.44482 C 47.124512,266.56006 40.372558,263.76416 34.487305,266.20361 C 33.241211,262.56201 32.111328,258.8833 31.099609,255.17041 L 138.55566,232.09131 L 207.16602,207.1665 z" /><path
       style="fill:#000066;fill-opacity:1"
       id="path2426"
       d="M 207.16602,207.1665 L 135.28662,219.88818 L 30.686523,253.62842 C 29.707031,249.90479 28.84668,246.15479 28.102539,242.37939 C 34.419922,241.54248 38.867676,235.74854 38.036621,229.43115 C 37.204101,223.11377 31.408691,218.66943 25.092285,219.49951 C 24.830078,215.65771 24.692871,211.81201 24.676758,207.9624 L 134.44189,213.47705 L 207.16602,207.1665 z" /><path
       style="fill:#000066;fill-opacity:1"
       id="path2424"
       d="M 207.16602,207.1665 L 134.44189,200.85107 L 24.676758,206.37061 C 24.692871,202.521 24.830078,198.6748 25.092285,194.83301 C 31.408691,195.66357 37.204101,191.21924 38.036621,184.89844 C 38.867676,178.58105 34.419922,172.7876 28.102539,171.95361 C 28.84668,168.17725 29.707031,164.42432 30.686523,160.70215 L 135.28662,194.44238 L 207.16602,207.1665 z" /><path
       style="fill:#000066;fill-opacity:1"
       id="path2422"
       d="M 207.16602,207.1665 L 138.55566,182.24365 L 31.099609,159.16406 C 32.111328,155.4502 33.241211,151.77051 34.487305,148.12891 C 40.372559,150.56787 47.124512,147.77051 49.563477,141.88428 C 52.001953,135.99609 49.20459,129.24707 43.318848,126.80811 C 45.013184,123.35303 46.817871,119.95166 48.727051,116.60937 L 141.0293,176.27148 L 207.16602,207.1665 z" /><path
       style="fill:#000066;fill-opacity:1"
       id="path2420"
       d="M 207.16602,207.1665 L 147.34473,165.33643 L 49.522461,115.23047 C 51.462402,111.90527 53.504395,108.64404 55.651855,105.44727 C 60.706543,109.32617 67.949219,108.37451 71.828613,103.31885 C 75.70752,98.26416 74.755371,91.018066 69.697266,87.13916 C 72.230957,84.239746 74.852051,81.42041 77.563476,78.687988 L 151.27686,160.2085 L 207.16602,207.1665 z" /><path
       style="fill:#000066;fill-opacity:1"
       id="path2418"
       d="M 207.16602,207.1665 L 160.2085,151.27686 L 78.6875,77.563477 C 81.42334,74.852051 84.239746,72.230469 87.139648,69.697754 C 91.018066,74.755859 98.263672,75.707519 103.31836,71.829102 C 108.37402,67.949707 109.32617,60.706543 105.44727,55.651855 C 108.64355,53.504395 111.90723,51.462891 115.23096,49.522461 L 165.33643,147.3418 L 207.16602,207.1665 z" /><path
       style="fill:#000066;fill-opacity:1"
       id="path2416"
       d="M 207.16602,207.1665 L 176.27197,141.02979 L 116.60938,48.727051 C 119.95166,46.817383 123.35352,45.012695 126.80762,43.319336 C 129.24707,49.20459 135.99609,52.001465 141.88428,49.563965 C 147.77344,47.124512 150.56787,40.373047 148.12842,34.487305 C 151.77002,33.241211 155.4502,32.11084 159.16406,31.099121 L 182.24414,138.55615 L 207.16602,207.1665 z" /><path
       style="fill:#000066;fill-opacity:1"
       id="path2414"
       d="M 207.16602,207.1665 L 194.44287,135.28711 L 160.70166,30.687012 C 164.4248,29.70752 168.17676,28.847168 171.95312,28.103027 C 172.78711,34.419922 178.58105,38.867188 184.89844,38.036621 C 191.21875,37.204102 195.66406,31.40918 194.8335,25.091797 C 198.67529,24.82959 202.52148,24.692871 206.37061,24.676758 L 200.85107,134.44189 L 207.16602,207.1665 z" /><path
       style="fill:#000066;fill-opacity:1"
       id="path2412"
       d="M 207.16602,207.1665 L 213.47754,134.44189 L 207.96191,24.676758 C 211.81152,24.692871 215.6582,24.82959 219.49902,25.091797 C 218.66895,31.40918 223.11328,37.204102 229.43066,38.036621 C 235.74805,38.867187 241.54395,34.419922 242.37891,28.103027 C 246.15527,28.847168 249.90527,29.707519 253.62891,30.687012 L 219.8877,135.28711 L 207.16602,207.1665 z" /><path
       style="fill:#000066;fill-opacity:1"
       id="path2410"
       d="M 207.16602,207.1665 L 232.0918,138.55615 L 255.16992,31.099121 C 258.88281,32.11084 262.5625,33.241211 266.2041,34.487305 C 263.76367,40.373047 266.55957,47.124512 272.44434,49.563965 C 278.33691,52.001465 285.08691,49.20459 287.52344,43.319336 C 290.98242,45.012695 294.38184,46.817383 297.71973,48.727051 L 238.05859,141.02979 L 207.16602,207.1665 z" /><path
       style="fill:#000066;fill-opacity:1"
       id="path2408"
       d="M 207.16602,207.1665 L 248.99805,147.3418 L 299.10156,49.522461 C 302.42578,51.462891 305.68848,53.504395 308.88281,55.651856 C 305.00293,60.706543 305.95801,67.949707 311.01465,71.829102 C 316.06934,75.70752 323.31445,74.755859 327.19238,69.697754 C 330.08984,72.230469 332.91113,74.852051 335.6416,77.563477 L 254.12402,151.27686 L 207.16602,207.1665 z" /><path
       style="fill:#000066;fill-opacity:1"
       id="path2406"
       d="M 207.16602,207.1665 L 263.05762,160.2085 L 336.76953,78.687988 C 339.4834,81.42041 342.10449,84.239746 344.63086,87.13916 C 339.58008,91.018067 338.62598,98.26416 342.50391,103.31885 C 346.38379,108.37451 353.62891,109.32617 358.67871,105.44727 C 360.82617,108.64404 362.87109,111.90527 364.80664,115.23047 L 266.98535,165.33643 L 207.16602,207.1665 z" /><path
       style="fill:#000066;fill-opacity:1"
       id="path2404"
       d="M 207.16602,207.1665 L 273.30371,176.27148 L 365.60449,116.60938 C 367.51465,119.95166 369.31738,123.35303 371.01172,126.80811 C 365.13086,129.24707 362.33008,135.99609 364.76953,141.88428 C 367.20801,147.77051 373.95508,150.56787 379.84766,148.12891 C 381.08887,151.77051 382.22168,155.4502 383.23633,159.16406 L 275.77832,182.24365 L 207.16602,207.1665 z" /><path
       style="fill:#000066;fill-opacity:1"
       id="path2402"
       d="M 207.16602,207.1665 L 279.0498,194.44238 L 383.64551,160.70215 C 384.62695,164.42432 385.48633,168.17725 386.22949,171.95361 C 379.91211,172.7876 375.4668,178.58105 376.29785,184.89844 C 377.12891,191.21924 382.92383,195.66357 389.24121,194.83301 C 389.50488,198.6748 389.64063,202.521 389.65527,206.37061 L 279.88867,200.85107 L 207.16602,207.1665 z" /><path
       style="fill:#000066;fill-opacity:1"
       id="path2400"
       d="M 207.16602,207.1665 L 279.88867,213.47705 L 389.65527,207.9624 C 389.64063,211.81201 389.50488,215.65771 389.24121,219.49951 C 382.92383,218.66943 377.12891,223.11377 376.29785,229.43115 C 375.4668,235.74854 379.91211,241.54248 386.22949,242.37939 C 385.48633,246.15479 384.62695,249.90479 383.64551,253.62842 L 279.0498,219.88818 L 207.16602,207.1665 z" /><path
       style="fill:#000066;fill-opacity:1"
       id="path2398"
       d="M 207.16602,207.1665 L 275.77832,232.09131 L 383.23633,255.17041 C 382.22168,258.8833 381.08887,262.56201 379.84766,266.20361 C 373.95508,263.76416 367.20801,266.56006 364.76953,272.44482 C 362.33008,278.3374 365.13086,285.08545 371.01172,287.52393 C 369.31738,290.98193 367.51465,294.38135 365.60449,297.72021 L 273.30371,238.05713 L 207.16602,207.1665 z" /><path
       style="fill:#000066;fill-opacity:1"
       id="path2396"
       d="M 207.16602,207.1665 L 266.98535,248.99854 L 364.80664,299.10205 C 362.87109,302.42627 360.82617,305.68896 358.67871,308.8833 C 353.62891,305.00342 346.38379,305.9585 342.50391,311.01318 C 338.62598,316.06982 339.58008,323.30811 344.63086,327.19189 C 342.10449,330.09033 339.4834,332.91162 336.76953,335.64209 L 263.05762,254.12451 L 207.16602,207.1665 z" /><path
       style="fill:#000066;fill-opacity:1"
       id="path2394"
       d="M 207.16602,207.1665 L 254.12402,263.05713 L 335.6416,336.77002 C 332.91113,339.48291 330.08984,342.10498 327.19238,344.63135 C 323.31445,339.58057 316.06934,338.62646 311.01465,342.50342 C 305.95801,346.38428 305.00293,353.62939 308.88281,358.6792 C 305.68848,360.82666 302.42578,362.87158 299.10156,364.80713 L 248.99805,266.98486 L 207.16602,207.1665 z" /><path
       style="fill:#000066;fill-opacity:1"
       id="path2392"
       d="M 207.16602,207.1665 L 238.05859,273.3042 L 297.71973,365.60498 C 294.38184,367.51514 290.98242,369.31787 287.52344,371.01123 C 285.08691,365.13037 278.33691,362.32959 272.44434,364.76807 C 266.55957,367.2085 263.76367,373.95752 266.2041,379.84814 C 262.5625,381.08838 258.88281,382.22217 255.16992,383.23584 L 232.0918,275.77881 L 207.16602,207.1665 z" /><path
       style="fill:#000066;fill-opacity:1"
       id="path6"
       d="M 207.16602,207.1665 L 219.8877,279.04834 L 253.62891,383.646 C 249.90527,384.62646 246.15527,385.48682 242.37891,386.22998 C 241.54395,379.9126 235.74805,375.46729 229.43066,376.29834 C 223.11328,377.12842 218.66895,382.92334 219.49902,389.24072 C 215.6582,389.50537 211.81152,389.64111 207.96191,389.65576 L 213.47754,279.88916 L 207.16602,207.1665 z" /><path
       style="opacity:1;fill:#000066;fill-opacity:1;stroke:none;stroke-width:3;stroke-miterlimit:4;stroke-dasharray:none;stroke-dashoffset:0;stroke-opacity:1"
       id="path2438"
       transform="matrix(2.4429628,0,0,2.8641631,586.19377,-310.41728)"
       d="M -139.90481,180.71039 C -139.9005,187.89489 -146.72764,193.72102 -155.15085,193.72102 C -163.57405,193.72102 -170.40119,187.89489 -170.39688,180.71039 C -170.40119,173.52589 -163.57405,167.69976 -155.15085,167.69976 C -146.72764,167.69976 -139.9005,173.52589 -139.90481,180.71039 z" /></g></svg>